<svg width="20" height="12" fill="none" xmlns="http://www.w3.org/2000/svg"><path d="M0 0v12h5.962c.552 0 4.356-.109 4.356-3.486 0-2.111-1.493-2.828-2.251-3.041.558-.256 1.668-.864 1.668-2.493 0-.907-.133-2.98-3.94-2.98H0zm13.591 1.115v1.094h4.607V1.115H13.59zM2.71 2.047h2.543c.24 0 1.855-.124 1.855 1.379 0 1.284-1.167 1.419-1.647 1.419H2.71V2.047zm13.299 1.156c-3.484 0-4.21 2.941-4.21 4.216 0 3.783 3.189 4.216 4.21 4.216 2.754 0 3.536-1.733 3.856-2.696h-2c-.079.248-.663 1.054-1.773 1.054-1.86 0-2.022-1.414-2.022-2.047h5.92c.12-2.19-.865-4.743-3.981-4.743zm-.063 1.642c.556 0 1.004.157 1.272.446.268.29.466.717.521 1.277H14.07c.01-.155.047-.332.105-.527.057-.2.146-.39.291-.568a1.85 1.85 0 01.584-.446c.24-.122.537-.182.896-.182zM2.71 6.649h2.939c.584 0 1.96.088 1.96 1.723 0 1.583-1.733 1.58-2.002 1.58H2.71V6.65z" fill="#666C72"/></svg>