<svg width="18" height="18" fill="none" xmlns="http://www.w3.org/2000/svg"><path d="M9 0C4.037 0 0 4.037 0 9s4.037 9 9 9 9-4.037 9-9-4.037-9-9-9zm0 1.5c1.901 0 3.624.715 4.945 1.875-.14.196-.33.434-.633.727-.641.62-1.666 1.368-3.234 1.945a35.76 35.76 0 00-2.789-4.36A7.637 7.637 0 019 1.5zm-3.188.703c.616.806 1.711 2.3 2.813 4.29-3.05.808-5.848.91-6.96.913a7.484 7.484 0 014.147-5.203zm9.165 2.274A7.493 7.493 0 0116.5 8.812c-.668-.149-1.652-.295-2.93-.304a18.33 18.33 0 00-2.226.14c-.188-.427-.39-.84-.586-1.242 1.682-.644 2.827-1.494 3.586-2.226.258-.252.46-.484.633-.703zM9.305 7.852c.173.348.348.706.515 1.078-3.205.887-5.508 3.606-6.492 4.968A7.472 7.472 0 011.5 9v-.094c1.014.012 4.236-.058 7.805-1.054zm4.265 2.132c1.34 0 2.265.188 2.813.329a7.446 7.446 0 01-3.07 4.828 26.831 26.831 0 00-1.383-5.063 17.065 17.065 0 011.64-.094zm-3.164.352c.674 1.71 1.24 3.589 1.524 5.578A7.546 7.546 0 019 16.5a7.483 7.483 0 01-4.57-1.547c.77-1.055 3.035-3.861 5.976-4.617z" fill="#666C72"/></svg>