<svg width="20" height="20" fill="none" xmlns="http://www.w3.org/2000/svg"><path d="M10.095 0c1.915 0 3.625.394 5.132 1.183 1.506.788 2.675 1.886 3.506 3.294.845 1.408 1.267 3 1.267 4.773 0 1.83-.359 3.267-1.077 4.309-.718 1.027-1.71 1.541-2.978 1.541-.676 0-1.246-.155-1.71-.464-.465-.324-.789-.782-.972-1.373-.845 1.225-2.112 1.837-3.802 1.837-.957 0-1.823-.225-2.597-.675a4.873 4.873 0 01-1.816-1.922c-.437-.817-.655-1.746-.655-2.788 0-1.028.218-1.943.655-2.746a4.726 4.726 0 011.816-1.9c.774-.465 1.64-.697 2.597-.697.747 0 1.415.126 2.007.38a3.896 3.896 0 011.52 1.12V4.497h2.345v7.181c0 .507.098.873.295 1.098.211.226.479.338.803.338.577 0 1.014-.324 1.31-.971.309-.662.464-1.613.464-2.851 0-1.493-.345-2.81-1.035-3.95-.676-1.14-1.626-2.027-2.851-2.66-1.225-.634-2.633-.951-4.224-.951-1.605 0-3.027.338-4.266 1.014a7.026 7.026 0 00-2.872 2.787C2.28 6.73 1.943 8.09 1.943 9.61c0 1.549.33 2.922.993 4.119a7.059 7.059 0 002.85 2.787c1.226.676 2.634 1.014 4.225 1.014.69 0 1.386-.077 2.09-.232a8.449 8.449 0 002.007-.697l.57 1.69c-.62.323-1.352.57-2.197.739-.83.169-1.654.253-2.47.253-1.972 0-3.717-.415-5.238-1.246a9.015 9.015 0 01-3.527-3.443C.416 13.13 0 11.469 0 9.61c0-1.83.422-3.47 1.267-4.92.845-1.465 2.028-2.612 3.548-3.443C6.35.416 8.11 0 10.095 0zm-.19 13.052c.915 0 1.661-.296 2.239-.887.591-.606.887-1.422.887-2.45 0-1.014-.296-1.816-.887-2.408-.578-.591-1.324-.887-2.239-.887-.93 0-1.683.303-2.26.908-.577.592-.866 1.387-.866 2.387 0 1.014.289 1.823.866 2.429.577.605 1.33.908 2.26.908z" fill="#868E96"/></svg>