<svg width="18" height="17" fill="none" xmlns="http://www.w3.org/2000/svg"><path d="M16.614.001c-.244.011-.47.082-.67.163A2711.507 2711.507 0 009.698 2.84c-3.187 1.37-6.77 2.913-8.605 3.703-.07.03-.31.106-.566.306-.255.2-.527.613-.527 1.074 0 .371.177.74.4.96.223.22.458.33.66.412L4.495 10.7c.151.462.974 2.979 1.165 3.596.125.407.245.661.4.864.079.1.17.19.28.259a.76.76 0 00.14.069l.003.001c.011.005.02.012.032.016.021.008.036.009.064.015.115.037.23.06.333.06.439 0 .707-.242.707-.242l.017-.011 2.257-1.953 2.737 2.59c.039.054.398.548 1.191.548.47 0 .844-.237 1.084-.488.24-.252.389-.516.452-.848v-.002c.06-.314 2.583-13.266 2.583-13.266l-.005.018c.074-.337.094-.651.012-.96a1.31 1.31 0 00-.562-.767 1.348 1.348 0 00-.77-.198zm-.14 1.568c-.004.022.002.01-.003.036l-.002.01-.001.008s-2.492 12.786-2.584 13.273c.007-.037-.024.036-.056.08-.044-.03-.136-.07-.136-.07l-.015-.016-3.739-3.537-2.644 2.285.787-3.15s4.916-5.089 5.213-5.385c.238-.237.288-.32.288-.401 0-.11-.057-.19-.184-.19-.115 0-.27.112-.352.165-1.075.685-5.793 3.435-7.908 4.665L1.676 7.925l.01-.004 8.604-3.703 4.215-1.81a326.83 326.83 0 011.969-.84z" fill="#868E96"/></svg>