<svg width="21" height="21" fill="none" xmlns="http://www.w3.org/2000/svg"><path d="M19.863 5.049l-.006-.025c-.49-1.981-2.7-4.107-4.73-4.55L15.105.47a26.28 26.28 0 00-9.892 0l-.024.004C3.16.917.951 3.043.46 5.024l-.005.025a19.361 19.361 0 000 8.34l.006.025c.47 1.897 2.515 3.925 4.468 4.483v2.212c0 .8.976 1.194 1.53.616l2.242-2.33c.486.028.972.043 1.459.043 1.652 0 3.305-.156 4.946-.47l.022-.004c2.03-.442 4.24-2.569 4.73-4.55l.006-.024a19.36 19.36 0 000-8.341zm-1.774 7.94c-.327 1.292-2.005 2.899-3.338 3.196a24.493 24.493 0 01-5.261.425.125.125 0 00-.093.038l-1.637 1.68-1.74 1.786a.204.204 0 01-.35-.141v-3.664a.126.126 0 00-.105-.124c-1.333-.297-3.01-1.904-3.338-3.197a17.57 17.57 0 010-7.538c.328-1.293 2.005-2.9 3.338-3.197 3.048-.58 6.139-.58 9.186 0 1.334.297 3.011 1.904 3.338 3.197a17.554 17.554 0 010 7.538z" fill="#868E96"/><path d="M13.058 14.68c-.205-.063-.4-.104-.582-.18-1.88-.78-3.609-1.786-4.98-3.328-.778-.877-1.388-1.867-1.904-2.915-.244-.496-.45-1.013-.66-1.526-.192-.468.09-.95.387-1.303a3.058 3.058 0 011.026-.77c.303-.146.602-.063.823.194.479.556.919 1.14 1.275 1.784.218.396.158.88-.238 1.15-.097.065-.185.142-.274.216a.898.898 0 00-.207.218.597.597 0 00-.04.525c.489 1.344 1.314 2.39 2.667 2.953.216.09.434.194.683.165.418-.048.553-.507.846-.746.286-.234.652-.237.96-.042.308.195.607.405.904.616.292.208.582.411.851.648.259.228.348.527.202.836-.266.566-.654 1.037-1.214 1.337-.158.085-.347.113-.525.168-.205-.063.178-.055 0 0zM10.164 4.01c2.459.069 4.478 1.7 4.91 4.13.074.415.1.838.133 1.259.014.177-.086.345-.277.347-.197.002-.286-.163-.298-.34-.026-.35-.043-.7-.091-1.048-.255-1.831-1.715-3.346-3.538-3.671-.275-.05-.555-.062-.833-.091-.176-.019-.406-.03-.445-.248-.033-.183.122-.329.296-.338.048-.003.095 0 .143 0 2.459.069-.048 0 0 0z" fill="#868E96"/><path d="M13.9 8.853c-.003.03-.005.103-.023.171-.066.247-.44.278-.526.029a.742.742 0 01-.03-.238c0-.52-.114-1.04-.376-1.494a2.78 2.78 0 00-1.166-1.094 3.354 3.354 0 00-.93-.285c-.14-.023-.281-.037-.422-.057-.17-.024-.262-.132-.254-.3.008-.158.123-.271.295-.262.564.032 1.109.154 1.61.42 1.02.54 1.603 1.393 1.773 2.531.008.052.02.103.024.155.01.128.016.256.026.424-.004.03-.01-.168 0 0z" fill="#868E96"/><path d="M12.371 8.794c-.206.003-.316-.11-.337-.299-.015-.131-.026-.265-.058-.393a1.105 1.105 0 00-.407-.64 1.063 1.063 0 00-.333-.16c-.15-.043-.307-.031-.458-.068-.163-.04-.254-.173-.228-.326a.295.295 0 01.312-.238c.953.07 1.634.562 1.732 1.684.006.08.014.163-.003.239-.03.13-.126.194-.22.2-.206.004.094-.006 0 0z" fill="#868E96"/></svg>