<svg width="23" height="15" fill="none" xmlns="http://www.w3.org/2000/svg"><path d="M22.195 13.005l-.001-.003-.029-.05a4.293 4.293 0 00-.4-.602c-.306-.397-.834-1.003-1.73-1.836h0l-.085-.078c-.424-.393-.791-.734-1.03-1.044-.287-.371-.474-.805-.36-1.342.092-.437.376-.86.688-1.284.154-.209.353-.467.581-.762.233-.302.497-.644.774-1.013l.56.42-.56-.42c.697-.929 1.164-1.65 1.433-2.18.126-.25.198-.438.234-.572a2.033 2.033 0 00-.408-.005l-.021.002h-.001 0-.002 0l-.038.005h-.039l-3.456.02h-.049l-.037-.005h-.005l-.001.003a.506.506 0 00-.023.037l-.013.033a18.136 18.136 0 01-.352.847 18.44 18.44 0 01-.95 1.887l5.32 7.942zm0 0a.893.893 0 01.095.198.911.911 0 01-.244.083c-.047.01-.087.016-.113.019l-.018.002-3.047.043h-.064l-.046.01a1.003 1.003 0 01-.213-.011c-.175-.027-.456-.107-.8-.342-.22-.152-.462-.382-.728-.67-.16-.174-.302-.336-.447-.503-.111-.128-.226-.26-.353-.4-.262-.292-.558-.6-.867-.817-.298-.209-.762-.44-1.289-.272h0c-.445.14-.723.472-.89.77-.168.3-.263.635-.32.918a5.637 5.637 0 00-.108 1.074v.027s0 0 0 0v.018a.672.672 0 01-.016.107.803.803 0 01-.153.047h-1.341l-.018.002h-.001s0 0 0 0h-.092c-.072 0-.183-.003-.328-.014a6.527 6.527 0 01-1.204-.219c-.993-.274-2.302-.867-3.537-2.152-1.387-1.445-2.721-3.638-3.723-5.51A51.004 51.004 0 01.776 2.238l3.186-.02a.597.597 0 01.186.074c.002.003.014.017.033.047a.52.52 0 01.023.042l.002.006.003.005.02.048a24.38 24.38 0 00.34.789c.225.5.545 1.162.912 1.797.689 1.19 1.23 1.982 1.688 2.446.229.232.486.433.781.533.332.113.663.08.952-.077h0c.26-.142.414-.37.505-.548.095-.187.158-.394.203-.59.091-.393.132-.85.15-1.263a15.724 15.724 0 00-.016-1.576l-.001-.013a3.695 3.695 0 00-.004-.183 5.865 5.865 0 00-.04-.484c-.041-.337-.14-.892-.434-1.292a1.674 1.674 0 00-.238-.26c.12-.019.258-.035.414-.047a18.89 18.89 0 011.613-.032h0c.909.01 1.135.064 1.45.14l.008.002s0 0 0 0 0 0 0 0a.55.55 0 01.155.057.083.083 0 01.03.025c.016.024.06.11.08.373.02.26.01.597-.01 1.066l-.004.114c-.018.434-.038.952-.038 1.549 0 .094-.003.21-.007.34-.008.318-.019.714.009 1.047.038.454.163 1.15.756 1.532h0m8.712 5.119l-8.712-5.118m0 0c.235.15.524.2.825.12m-.825-.12l.825.12m0 0c.268-.071.514-.234.745-.442m-.745.442l.745-.442m0 0c.46-.416 1.043-1.18 1.821-2.502l-1.821 2.502zM22.3 13.25v-.002.002zM.534 2.285l.003-.002a.025.025 0 01-.003.002zm7.738-.235a.15.15 0 01-.001.003s0 0 0 0l.001-.003zm5.17 11.078l-.699.01h0l.7-.01z" stroke="#868E96" stroke-width="1.4"/></svg>