<svg width="19" height="11" fill="none" xmlns="http://www.w3.org/2000/svg"><path d="M9.139.002c-1.02-.009-1.883.004-2.371.243-.325.159-.576.515-.422.536.188.024.614.114.843.425.292.399.284 1.295.284 1.295s.166 2.466-.395 2.773c-.385.21-.913-.217-2.048-2.179C4.448 2.088 4.012.977 4.012.977s-.086-.21-.236-.32C3.59.52 3.334.476 3.334.476L.622.491s-.41 0-.56.179c-.133.159-.01.472-.01.472s2.126 4.955 4.533 7.465c2.21 2.3 4.712 2.09 4.712 2.09h1.137s.345.02.52-.168c.16-.174.155-.445.155-.445s-.022-1.526.684-1.75c.698-.222 1.592 1.473 2.54 2.125.716.493 1.262.387 1.262.387l2.537-.033s1.325-.084.701-1.134c-.052-.086-.366-.773-1.885-2.186-1.593-1.478-1.38-1.24.536-3.798C18.651 2.14 19.118 1.19 18.971.781c-.14-.39-.998-.287-.998-.287L15.12.511s-.213-.03-.37.064c-.154.094-.254.307-.254.307s-.45 1.207-1.055 2.233c-1.27 2.164-1.778 2.277-1.987 2.142-.484-.31-.361-1.254-.361-1.926 0-2.097.315-2.971-.62-3.198C10.16.057 9.932.01 9.138.002z" fill="#666C72"/></svg>