<svg width="21" height="21" fill="none" xmlns="http://www.w3.org/2000/svg"><path fill-rule="evenodd" clip-rule="evenodd" d="M21 10.23c0 5.65-4.615 10.23-10.31 10.23a10.32 10.32 0 01-4.982-1.274L0 21l1.86-5.489A10.122 10.122 0 01.382 10.23C.381 4.58 4.997 0 10.692 0 16.385 0 21 4.58 21 10.23zm-10.31-8.6c-4.779 0-8.667 3.857-8.667 8.6a8.51 8.51 0 001.652 5.042l-1.083 3.194 3.33-1.059a8.662 8.662 0 004.77 1.423c4.778 0 8.666-3.858 8.666-8.6 0-4.742-3.888-8.6-8.667-8.6zm4.86 10.73c.176.084.295.141.347.226.063.104.063.606-.147 1.192-.212.585-1.244 1.15-1.707 1.192-.079.007-.145.023-.212.039-.326.078-.691.166-2.82-.666-2.374-.928-3.94-3.23-4.263-3.707a2.61 2.61 0 00-.054-.078c-.129-.17-1.032-1.36-1.032-2.593 0-1.155.572-1.76.835-2.039l.05-.053a.933.933 0 01.674-.313c.087 0 .174.005.258.01.079.006.155.01.226.01a.878.878 0 00.055-.002c.143-.009.328-.02.513.42l.27.649c.22.531.467 1.128.51 1.213.063.126.105.272.02.44l-.033.068c-.064.13-.11.224-.219.35-.042.048-.085.1-.128.153a4.17 4.17 0 01-.251.286c-.126.125-.258.26-.11.511.147.251.654 1.072 1.405 1.736.808.715 1.51 1.017 1.865 1.17.07.03.126.054.167.075.253.125.4.104.547-.063.148-.168.633-.732.8-.983.169-.251.338-.21.57-.126.23.084 1.473.69 1.726.816l.137.066z" fill="#868E96"/></svg>